<svg width="335" height="85" viewBox="0 0 335 85" fill="none" xmlns="http://www.w3.org/2000/svg">
<path d="M5.1 84.9C3.5 84.9 2.33333 84.5333 1.6 83.8C0.866667 83.0667 0.5 81.9 0.5 80.3V68.6C0.5 67.7333 0.6 67 0.8 66.4C1.06667 65.8 1.43333 65.3 1.9 64.9L11.2 57.1C10.3333 56.8333 9.66667 56.3667 9.2 55.7C8.8 54.9667 8.6 54 8.6 52.8V42.1C8.6 41.2333 8.7 40.5 8.9 39.9C9.16667 39.3 9.53333 38.8 10 38.4L17.6 32H5.1C3.5 32 2.33333 31.6333 1.6 30.9C0.866667 30.1667 0.5 29 0.5 27.4V15.5C0.5 14.6333 0.6 13.9 0.8 13.3C1.06667 12.7 1.43333 12.2 1.9 11.8L14.8 0.899998C15.1333 0.633331 15.5667 0.43333 16.1 0.299994C16.7 0.0999968 17.3333 -1.90735e-06 18 -1.90735e-06H45.9C51.8333 -1.90735e-06 56.2 1.4 59 4.2C61.8667 7 63.3 10.7 63.3 15.3V21.1C63.3 23.3 63 25.2667 62.4 27C61.8 28.6667 60.8333 30.0667 59.5 31.2L59.3 31.4C63.2333 32.2667 66 33.9333 67.6 36.4C69.2 38.8667 70 42.2 70 46.4V56.4C70 59.2 69.5333 61.7333 68.6 64C67.6667 66.2 66.2667 68.0667 64.4 69.6L51.6 80.4C49.9333 81.8667 47.8333 82.9667 45.3 83.7C42.8333 84.5 39.9667 84.9 36.7 84.9H5.1ZM18 54.1C16.7333 54.1 15.8 54.4 15.2 55C14.6667 55.5333 14.4 56.4333 14.4 57.7V69.4C14.4 70.6667 14.6667 71.6 15.2 72.2C15.8 72.7333 16.7333 73 18 73H49.6C56 73 60.8333 71.5333 64.1 68.6C67.3667 65.6 69 61.5333 69 56.4V46.4C69 42 68.0667 38.6333 66.2 36.3C64.4 33.9 61.1333 32.4333 56.4 31.9C58.6 30.9667 60.1333 29.5667 61 27.7C61.8667 25.8333 62.3 23.6333 62.3 21.1V15.3C62.3 10.9 60.9333 7.43333 58.2 4.89999C55.5333 2.3 51.4333 0.999997 45.9 0.999997H18C16.7333 0.999997 15.8 1.3 15.2 1.9C14.6667 2.43333 14.4 3.33333 14.4 4.6V16.5C14.4 17.7667 14.6667 18.7 15.2 19.3C15.8 19.8333 16.7333 20.1 18 20.1H36.6C38.2 20.1 39.2333 20.4 39.7 21C40.1667 21.6 40.4 22.3 40.4 23.1V24.6C40.4 25.4 40.1667 26.1 39.7 26.7C39.2333 27.3 38.2 27.6 36.6 27.6H26.1C24.8333 27.6 23.9 27.9 23.3 28.5C22.7667 29.0333 22.5 29.9333 22.5 31.2V41.9C22.5 43.1667 22.7667 44.1 23.3 44.7C23.9 45.2333 24.8333 45.5 26.1 45.5H43.1C44.7 45.5 45.7333 45.8 46.2 46.4C46.6667 46.9333 46.9 47.6 46.9 48.4V51.1C46.9 51.9 46.6667 52.6 46.2 53.2C45.7333 53.8 44.7 54.1 43.1 54.1H18ZM31.5 37.1V36.1H39.8C42.3333 36.1 44.3333 35.8667 45.8 35.4C47.2667 34.8667 48.3667 34.2 49.1 33.4C49.9 32.5333 50.4 31.5667 50.6 30.5C50.8 29.3667 50.9 28.2 50.9 27V20.2C50.9 17.6 50.1 15.4333 48.5 13.7C46.9 11.9 43.6667 11 38.8 11H23.4V9.99999H38.8C41.5333 9.99999 43.7667 10.3 45.5 10.9C47.2333 11.4333 48.5667 12.2 49.5 13.2C50.4333 14.1333 51.0667 15.2333 51.4 16.5C51.7333 17.7667 51.9 19.1333 51.9 20.6V27C51.9 28.8667 51.5333 30.7333 50.8 32.6C50.1333 34.4 48.3 35.6333 45.3 36.3H46.9C51.0333 36.3 54 37.2333 55.8 39.1C57.6 40.9667 58.5 43.6333 58.5 47.1V54C58.5 55.4667 58.3333 56.8333 58 58.1C57.6667 59.3 57.0333 60.3333 56.1 61.2C55.2333 62.0667 53.9333 62.7667 52.2 63.3C50.4667 63.7667 48.2 64 45.4 64H23.4V63H45.4C50.4 63 53.6667 62.2 55.2 60.6C56.7333 58.9333 57.5 56.7333 57.5 54V47.1C57.5 43.7667 56.6333 41.2667 54.9 39.6C53.2333 37.9333 50.5 37.1 46.7 37.1H31.5ZM135.13 84.9H110.73C101.997 84.9 95.5305 82.6333 91.3305 78.1C87.1971 73.5667 85.1305 67.7 85.1305 60.5V32.4C85.1305 28.7333 85.6638 25.5667 86.7305 22.9C87.7971 20.1667 89.3638 17.9 91.4305 16.1L104.43 5.2C106.497 3.46666 109.13 2.16666 112.33 1.3C115.53 0.433332 119.297 -1.90735e-06 123.63 -1.90735e-06H148.03C149.63 -1.90735e-06 150.797 0.366664 151.53 1.1C152.264 1.83333 152.63 3 152.63 4.6V16.7C152.63 17.5667 152.497 18.3 152.23 18.9C152.03 19.5 151.697 20 151.23 20.4L138.23 31.2C137.964 31.4667 137.53 31.7 136.93 31.9C136.397 32.1 135.797 32.2 135.13 32.2H122.83V49.1C122.83 50.5 123.264 51.5 124.13 52.1C124.997 52.6333 126.264 52.9 127.93 52.9H148.03C149.63 52.9 150.797 53.2667 151.53 54C152.264 54.7333 152.63 55.9 152.63 57.5V69.4C152.63 70.2667 152.497 71 152.23 71.6C152.03 72.2 151.697 72.7 151.23 73.1L138.23 83.9C137.964 84.1667 137.53 84.4 136.93 84.6C136.397 84.8 135.797 84.9 135.13 84.9ZM148.03 73C149.297 73 150.197 72.7333 150.73 72.2C151.33 71.6 151.63 70.6667 151.63 69.4V57.5C151.63 56.2333 151.33 55.3333 150.73 54.8C150.197 54.2 149.297 53.9 148.03 53.9H127.93C125.864 53.9 124.33 53.5333 123.33 52.8C122.33 52 121.83 50.7667 121.83 49.1V25.3C121.83 23.6333 122.33 22.4 123.33 21.6C124.33 20.7333 125.864 20.3 127.93 20.3H148.03C149.297 20.3 150.197 20.0333 150.73 19.5C151.33 18.9 151.63 17.9667 151.63 16.7V4.6C151.63 3.33333 151.33 2.43333 150.73 1.9C150.197 1.3 149.297 0.999997 148.03 0.999997H123.63C115.297 0.999997 109.097 2.7 105.03 6.1C101.03 9.43333 99.0305 14.5667 99.0305 21.5V52.6C99.0305 59.5333 101.03 64.6667 105.03 68C109.097 71.3333 115.297 73 123.63 73H148.03ZM142.53 63V64H125.83C119.364 64 115.064 63 112.93 61C110.864 59 109.83 55.7 109.83 51.1V23.1C109.83 18.3667 110.897 15 113.03 13C115.164 11 119.43 9.99999 125.83 9.99999H142.53V11H125.83C119.964 11 115.997 11.9333 113.93 13.8C111.864 15.6 110.83 18.7 110.83 23.1V51.1C110.83 55.4333 111.83 58.5 113.83 60.3C115.83 62.1 119.83 63 125.83 63H142.53ZM192.984 42.7V45.8H231.984V42.7C231.984 40.9 231.818 39.2333 231.484 37.7C231.218 36.1667 230.851 34.7333 230.384 33.4L223.484 17.1C222.751 15.3667 221.984 13.9333 221.184 12.8C220.384 11.6 219.051 11 217.184 11H207.384C205.384 11 203.984 11.6 203.184 12.8C202.384 13.9333 201.651 15.3333 200.984 17L194.584 33.4C194.118 34.7333 193.718 36.1667 193.384 37.7C193.118 39.2333 192.984 40.9 192.984 42.7ZM208.984 22C209.251 21.4 209.518 20.9667 209.784 20.7C210.118 20.4333 210.484 20.3 210.884 20.3H213.384C213.784 20.3 214.118 20.4333 214.384 20.7C214.718 20.9667 215.018 21.4 215.284 22L219.984 37.2H204.284L208.984 22ZM231.984 64V46.8H192.984V64H191.984V42.7C191.984 40.8333 192.118 39.1333 192.384 37.6C192.718 36 193.151 34.4667 193.684 33L200.084 16.6C200.818 14.7333 201.651 13.1667 202.584 11.9C203.518 10.6333 205.118 9.99999 207.384 9.99999H217.184C219.384 9.99999 220.918 10.6333 221.784 11.9C222.718 13.1667 223.584 14.7667 224.384 16.7L231.284 33C231.818 34.4667 232.218 36 232.484 37.6C232.818 39.1333 232.984 40.8333 232.984 42.7V64H231.984ZM203.284 69.4V55.4H220.984V69.4C220.984 70.6667 221.284 71.6 221.884 72.2C222.551 72.7333 223.551 73 224.884 73H239.984C241.251 73 242.151 72.7333 242.684 72.2C243.284 71.6 243.584 70.6667 243.584 69.4V43C243.584 41 243.251 38.7 242.584 36.1C241.984 33.5 241.018 30.4667 239.684 27L230.984 4.3C230.584 3.16666 229.951 2.33333 229.084 1.8C228.284 1.26666 227.251 0.999997 225.984 0.999997H199.084C197.751 0.999997 196.651 1.26666 195.784 1.8C194.984 2.33333 194.384 3.16666 193.984 4.3L185.284 27C183.951 30.4667 182.951 33.5 182.284 36.1C181.684 38.7 181.384 41 181.384 43V69.4C181.384 70.6667 181.651 71.6 182.184 72.2C182.784 72.7333 183.718 73 184.984 73H199.684C200.951 73 201.851 72.7333 202.384 72.2C202.984 71.6 203.284 70.6667 203.284 69.4ZM189.884 83.9C189.618 84.1667 189.184 84.4 188.584 84.6C188.051 84.8 187.451 84.9 186.784 84.9H172.084C170.484 84.9 169.318 84.5333 168.584 83.8C167.851 83.0667 167.484 81.9 167.484 80.3V53.9C167.484 51.8333 167.784 49.5 168.384 46.9C169.051 44.2333 170.084 41.1 171.484 37.5L180.084 14.9C180.284 14.3 180.518 13.8 180.784 13.4C181.118 12.9333 181.451 12.5333 181.784 12.2L181.884 12.1L194.684 1.4C195.218 0.933329 195.851 0.599996 196.584 0.399999C197.318 0.133332 198.151 -1.90735e-06 199.084 -1.90735e-06H225.984C227.518 -1.90735e-06 228.751 0.333331 229.684 0.999997C230.684 1.6 231.418 2.56666 231.884 3.9L240.584 26.6C241.984 30.2 242.984 33.3333 243.584 36C244.251 38.6 244.584 40.9333 244.584 43V69.4C244.584 70.2667 244.451 71 244.184 71.6C243.984 72.2 243.651 72.7 243.184 73.1L230.184 83.9C229.918 84.1667 229.484 84.4 228.884 84.6C228.351 84.8 227.751 84.9 227.084 84.9H211.984C210.318 84.9 209.084 84.5 208.284 83.7C207.484 82.9667 207.084 81.8333 207.084 80.3V67.3H204.284V69.4C204.284 70.2667 204.151 71 203.884 71.6C203.684 72.2 203.351 72.7 202.884 73.1L189.884 83.9ZM282.092 84.9H266.592C264.992 84.9 263.826 84.5333 263.092 83.8C262.359 83.0667 261.992 81.9 261.992 80.3V15.5C261.992 14.6333 262.092 13.9 262.292 13.3C262.559 12.7 262.926 12.2 263.392 11.8L276.292 0.899998C276.626 0.633331 277.059 0.43333 277.592 0.299994C278.192 0.0999968 278.826 -1.90735e-06 279.492 -1.90735e-06H310.092C314.826 -1.90735e-06 318.792 0.499998 321.992 1.5C325.192 2.5 327.726 3.9 329.592 5.7C331.459 7.5 332.759 9.66666 333.492 12.2C334.292 14.7333 334.692 17.5 334.692 20.5V33.3C334.692 36.5 334.226 39.4333 333.292 42.1C332.426 44.7 330.892 46.9333 328.692 48.8L315.692 59.6C314.026 61 311.859 62.1667 309.192 63.1C306.592 63.9667 303.392 64.4667 299.592 64.6V69.4C299.592 70.2667 299.459 71 299.192 71.6C298.992 72.2 298.659 72.7 298.192 73.1L285.192 83.9C284.926 84.1667 284.492 84.4 283.892 84.6C283.359 84.8 282.759 84.9 282.092 84.9ZM294.992 73C296.259 73 297.159 72.7333 297.692 72.2C298.292 71.6 298.592 70.6667 298.592 69.4V52.8H310.092C319.159 52.8 325.359 51 328.692 47.4C332.026 43.8 333.692 39.1 333.692 33.3V20.5C333.692 14.7 332.026 10 328.692 6.4C325.359 2.8 319.159 0.999997 310.092 0.999997H279.492C278.226 0.999997 277.292 1.3 276.692 1.9C276.159 2.43333 275.892 3.33333 275.892 4.6V69.4C275.892 70.6667 276.159 71.6 276.692 72.2C277.292 72.7333 278.226 73 279.492 73H294.992ZM308.692 44.3H288.092V64H287.092V9.99999H308.692C311.826 9.99999 314.359 10.3667 316.292 11.1C318.292 11.7667 319.826 12.7 320.892 13.9C321.959 15.1 322.692 16.5333 323.092 18.2C323.492 19.8667 323.692 21.6667 323.692 23.6V31C323.692 32.9333 323.492 34.7333 323.092 36.4C322.692 38 321.959 39.4 320.892 40.6C319.826 41.7333 318.292 42.6333 316.292 43.3C314.359 43.9667 311.826 44.3 308.692 44.3ZM288.092 43.3H308.692C311.626 43.3 313.992 43 315.792 42.4C317.659 41.8 319.092 40.9667 320.092 39.9C321.092 38.7667 321.759 37.4667 322.092 36C322.492 34.4667 322.692 32.8 322.692 31V23.6C322.692 21.8 322.492 20.1333 322.092 18.6C321.759 17.0667 321.092 15.7333 320.092 14.6C319.092 13.4667 317.659 12.6 315.792 12C313.992 11.3333 311.626 11 308.692 11H288.092V43.3ZM298.392 19.7H307.392C309.326 19.7 310.592 20.2 311.192 21.2C311.792 22.2 312.092 23.3333 312.092 24.6V29.9C312.092 31.1667 311.792 32.3 311.192 33.3C310.592 34.3 309.326 34.8 307.392 34.8H298.392V19.7Z" fill="black"/>
</svg>
