<svg width="865" height="126" viewBox="0 0 865 126" fill="none" xmlns="http://www.w3.org/2000/svg">
<path d="M164.5 107.9H148.3C146.7 107.9 145.533 107.533 144.8 106.8C144.067 106.067 143.7 104.9 143.7 103.3V55.2H130C128.4 55.2 127.233 54.8333 126.5 54.1C125.767 53.3667 125.4 52.2 125.4 50.6V38.5C125.4 37.6333 125.5 36.9 125.7 36.3C125.967 35.7 126.333 35.2 126.8 34.8L139.7 23.9C140.033 23.6333 140.467 23.4333 141 23.3C141.6 23.1 142.233 23 142.9 23H195.7C197.3 23 198.467 23.3667 199.2 24.1C199.933 24.8333 200.3 26 200.3 27.6V39.7C200.3 40.5667 200.167 41.3 199.9 41.9C199.7 42.5 199.367 43 198.9 43.4L185.9 54.2C185.633 54.4667 185.2 54.7 184.6 54.9C184.067 55.1 183.467 55.2 182.8 55.2H182V92.4C182 93.2667 181.867 94 181.6 94.6C181.4 95.2 181.067 95.7 180.6 96.1L167.6 106.9C167.333 107.167 166.9 107.4 166.3 107.6C165.767 107.8 165.167 107.9 164.5 107.9ZM177.4 96C178.667 96 179.567 95.7333 180.1 95.2C180.7 94.6 181 93.6667 181 92.4V43.3H195.7C196.967 43.3 197.867 43.0333 198.4 42.5C199 41.9 199.3 40.9667 199.3 39.7V27.6C199.3 26.3333 199 25.4333 198.4 24.9C197.867 24.3 196.967 24 195.7 24H142.9C141.633 24 140.7 24.3 140.1 24.9C139.567 25.4333 139.3 26.3333 139.3 27.6V39.7C139.3 40.9667 139.567 41.9 140.1 42.5C140.7 43.0333 141.633 43.3 142.9 43.3H157.6V92.4C157.6 93.6667 157.867 94.6 158.4 95.2C159 95.7333 159.933 96 161.2 96H177.4ZM168.8 87V34H148.3V33H190.3V34H169.8V87H168.8ZM239.786 87V33H240.786V59.5H279.186V33H280.186V87H279.186V60.5H240.786V87H239.786ZM248.086 96C249.353 96 250.253 95.7333 250.786 95.2C251.386 94.6 251.686 93.6667 251.686 92.4V70.2H268.386V92.4C268.386 93.6667 268.653 94.6 269.186 95.2C269.786 95.7333 270.719 96 271.986 96H287.486C288.753 96 289.653 95.7333 290.186 95.2C290.786 94.6 291.086 93.6667 291.086 92.4V27.6C291.086 26.3333 290.786 25.4333 290.186 24.9C289.653 24.3 288.753 24 287.486 24H271.986C270.719 24 269.786 24.3 269.186 24.9C268.653 25.4333 268.386 26.3333 268.386 27.6V49.3H251.686V27.6C251.686 26.3333 251.386 25.4333 250.786 24.9C250.253 24.3 249.353 24 248.086 24H232.586C231.319 24 230.386 24.3 229.786 24.9C229.253 25.4333 228.986 26.3333 228.986 27.6V92.4C228.986 93.6667 229.253 94.6 229.786 95.2C230.386 95.7333 231.319 96 232.586 96H248.086ZM251.286 96.1L238.286 106.9C238.019 107.167 237.586 107.4 236.986 107.6C236.453 107.8 235.853 107.9 235.186 107.9H219.686C218.086 107.9 216.919 107.533 216.186 106.8C215.453 106.067 215.086 104.9 215.086 103.3V38.5C215.086 37.6333 215.186 36.9 215.386 36.3C215.653 35.7 216.019 35.2 216.486 34.8L229.386 23.9C229.719 23.6333 230.153 23.4333 230.686 23.3C231.286 23.1 231.919 23 232.586 23H248.086C249.686 23 250.853 23.3667 251.586 24.1C252.319 24.8333 252.686 26 252.686 27.6V48.3H254.486V38.5C254.486 37.6333 254.586 36.9 254.786 36.3C255.053 35.7 255.419 35.2 255.886 34.8L268.786 23.9C269.119 23.6333 269.553 23.4333 270.086 23.3C270.686 23.1 271.319 23 271.986 23H287.486C289.086 23 290.253 23.3667 290.986 24.1C291.719 24.8333 292.086 26 292.086 27.6V92.4C292.086 93.2667 291.953 94 291.686 94.6C291.486 95.2 291.153 95.7 290.686 96.1L277.686 106.9C277.419 107.167 276.986 107.4 276.386 107.6C275.853 107.8 275.253 107.9 274.586 107.9H259.086C257.486 107.9 256.319 107.533 255.586 106.8C254.853 106.067 254.486 104.9 254.486 103.3V82.1H252.686V92.4C252.686 93.2667 252.553 94 252.286 94.6C252.086 95.2 251.753 95.7 251.286 96.1ZM358.523 34H336.723V62.9H358.523C362.657 62.9 365.423 61.9 366.823 59.9C368.223 57.9 368.923 55.0667 368.923 51.4V44.4C368.923 41.3333 368.057 38.8333 366.323 36.9C364.657 34.9667 362.057 34 358.523 34ZM347.523 42H355.023C356.757 42 357.923 42.4667 358.523 43.4C359.123 44.2667 359.423 45.3667 359.423 46.7V50.1C359.423 51.4333 359.123 52.5667 358.523 53.5C357.923 54.3667 356.757 54.8 355.023 54.8H347.523V42ZM336.723 87H335.723V33H358.523C362.39 33 365.257 34.1 367.123 36.3C368.99 38.4333 369.923 41.1333 369.923 44.4V51.3C369.923 54.3667 369.523 56.9 368.723 58.9C367.923 60.8333 366.323 62.1667 363.923 62.9H365.023C369.09 62.9 372.123 63.8333 374.123 65.7C376.123 67.5 377.123 70.1333 377.123 73.6V87H376.123V73.6C376.123 70.3333 375.223 67.9 373.423 66.3C371.623 64.6333 368.823 63.8 365.023 63.8H336.723V87ZM343.923 96C345.19 96 346.09 95.7333 346.623 95.2C347.223 94.6 347.523 93.6667 347.523 92.4V72.8H361.523C362.923 72.8 363.89 73.1667 364.423 73.9C365.023 74.5667 365.323 75.6333 365.323 77.1V92.4C365.323 93.6667 365.59 94.6 366.123 95.2C366.723 95.7333 367.657 96 368.923 96H384.423C385.69 96 386.59 95.7333 387.123 95.2C387.723 94.6 388.023 93.6667 388.023 92.4V71.2C388.023 67 386.89 63.6333 384.623 61.1C382.423 58.5667 379.523 57.1 375.923 56.7C377.99 55.8333 379.423 54.4333 380.223 52.5C381.09 50.5 381.523 48.1 381.523 45.3V40.7C381.523 35.7667 380.09 31.7667 377.223 28.7C374.423 25.5667 369.29 24 361.823 24H328.523C327.257 24 326.323 24.3 325.723 24.9C325.19 25.4333 324.923 26.3333 324.923 27.6V92.4C324.923 93.6667 325.19 94.6 325.723 95.2C326.323 95.7333 327.257 96 328.523 96H343.923ZM347.123 96.1L334.123 106.9C333.857 107.167 333.423 107.4 332.823 107.6C332.29 107.8 331.69 107.9 331.023 107.9H315.623C314.023 107.9 312.857 107.533 312.123 106.8C311.39 106.067 311.023 104.9 311.023 103.3V38.5C311.023 37.6333 311.123 36.9 311.323 36.3C311.59 35.7 311.957 35.2 312.423 34.8L325.323 23.9C325.657 23.6333 326.09 23.4333 326.623 23.3C327.223 23.1 327.857 23 328.523 23H361.823C369.757 23 375.19 24.6667 378.123 28C381.057 31.2667 382.523 35.5 382.523 40.7V45.3C382.523 47.7667 382.223 49.9333 381.623 51.8C381.023 53.6 380.057 55.0667 378.723 56.2H378.623C381.757 57.0667 384.257 58.8 386.123 61.4C388.057 64 389.023 67.2667 389.023 71.2V92.4C389.023 93.2667 388.89 94 388.623 94.6C388.423 95.2 388.09 95.7 387.623 96.1L374.623 106.9C374.357 107.167 373.923 107.4 373.323 107.6C372.79 107.8 372.19 107.9 371.523 107.9H356.023C354.423 107.9 353.257 107.533 352.523 106.8C351.79 106.067 351.423 104.9 351.423 103.3V88C351.423 86.9333 351.223 86.1333 350.823 85.6C350.423 85 349.69 84.7 348.623 84.7H348.523V92.4C348.523 93.2667 348.39 94 348.123 94.6C347.923 95.2 347.59 95.7 347.123 96.1ZM456.301 107.9H409.901C408.301 107.9 407.134 107.533 406.401 106.8C405.667 106.067 405.301 104.9 405.301 103.3V38.5C405.301 37.6333 405.401 36.9 405.601 36.3C405.867 35.7 406.234 35.2 406.701 34.8L419.601 23.9C419.934 23.6333 420.367 23.4333 420.901 23.3C421.501 23.1 422.134 23 422.801 23H469.201C470.801 23 471.967 23.3667 472.701 24.1C473.434 24.8333 473.801 26 473.801 27.6V39.3C473.801 40.1667 473.667 40.9 473.401 41.5C473.201 42.1 472.867 42.6 472.401 43L463.801 50.1C464.467 50.4333 464.934 50.9333 465.201 51.6C465.534 52.2667 465.701 53.1333 465.701 54.2V64.9C465.701 65.7667 465.567 66.5 465.301 67.1C465.101 67.7 464.767 68.2 464.301 68.6L455.401 76.1H469.201C470.801 76.1 471.967 76.4667 472.701 77.2C473.434 77.9333 473.801 79.1 473.801 80.7V92.4C473.801 93.2667 473.667 94 473.401 94.6C473.201 95.2 472.867 95.7 472.401 96.1L459.401 106.9C459.134 107.167 458.701 107.4 458.101 107.6C457.567 107.8 456.967 107.9 456.301 107.9ZM469.201 96C470.467 96 471.367 95.7333 471.901 95.2C472.501 94.6 472.801 93.6667 472.801 92.4V80.7C472.801 79.4333 472.501 78.5333 471.901 78C471.367 77.4 470.467 77.1 469.201 77.1H441.601V68.5H461.101C462.367 68.5 463.267 68.2333 463.801 67.7C464.401 67.1 464.701 66.1667 464.701 64.9V54.2C464.701 52.9333 464.401 52.0333 463.801 51.5C463.267 50.9 462.367 50.6 461.101 50.6H441.601V42.9H469.201C470.467 42.9 471.367 42.6333 471.901 42.1C472.501 41.5 472.801 40.5667 472.801 39.3V27.6C472.801 26.3333 472.501 25.4333 471.901 24.9C471.367 24.3 470.467 24 469.201 24H422.801C421.534 24 420.601 24.3 420.001 24.9C419.467 25.4333 419.201 26.3333 419.201 27.6V92.4C419.201 93.6667 419.467 94.6 420.001 95.2C420.601 95.7333 421.534 96 422.801 96H469.201ZM463.801 86V87H430.101V33H463.801V34H431.101V59.1H455.701V60.1H431.101V86H463.801ZM541.691 107.9H495.291C493.691 107.9 492.525 107.533 491.791 106.8C491.058 106.067 490.691 104.9 490.691 103.3V38.5C490.691 37.6333 490.791 36.9 490.991 36.3C491.258 35.7 491.625 35.2 492.091 34.8L504.991 23.9C505.325 23.6333 505.758 23.4333 506.291 23.3C506.891 23.1 507.525 23 508.191 23H554.591C556.191 23 557.358 23.3667 558.091 24.1C558.825 24.8333 559.191 26 559.191 27.6V39.3C559.191 40.1667 559.058 40.9 558.791 41.5C558.591 42.1 558.258 42.6 557.791 43L549.191 50.1C549.858 50.4333 550.325 50.9333 550.591 51.6C550.925 52.2667 551.091 53.1333 551.091 54.2V64.9C551.091 65.7667 550.958 66.5 550.691 67.1C550.491 67.7 550.158 68.2 549.691 68.6L540.791 76.1H554.591C556.191 76.1 557.358 76.4667 558.091 77.2C558.825 77.9333 559.191 79.1 559.191 80.7V92.4C559.191 93.2667 559.058 94 558.791 94.6C558.591 95.2 558.258 95.7 557.791 96.1L544.791 106.9C544.525 107.167 544.091 107.4 543.491 107.6C542.958 107.8 542.358 107.9 541.691 107.9ZM554.591 96C555.858 96 556.758 95.7333 557.291 95.2C557.891 94.6 558.191 93.6667 558.191 92.4V80.7C558.191 79.4333 557.891 78.5333 557.291 78C556.758 77.4 555.858 77.1 554.591 77.1H526.991V68.5H546.491C547.758 68.5 548.658 68.2333 549.191 67.7C549.791 67.1 550.091 66.1667 550.091 64.9V54.2C550.091 52.9333 549.791 52.0333 549.191 51.5C548.658 50.9 547.758 50.6 546.491 50.6H526.991V42.9H554.591C555.858 42.9 556.758 42.6333 557.291 42.1C557.891 41.5 558.191 40.5667 558.191 39.3V27.6C558.191 26.3333 557.891 25.4333 557.291 24.9C556.758 24.3 555.858 24 554.591 24H508.191C506.925 24 505.991 24.3 505.391 24.9C504.858 25.4333 504.591 26.3333 504.591 27.6V92.4C504.591 93.6667 504.858 94.6 505.391 95.2C505.991 95.7333 506.925 96 508.191 96H554.591ZM549.191 86V87H515.491V33H549.191V34H516.491V59.1H541.091V60.1H516.491V86H549.191ZM624.494 107.9H600.094C591.36 107.9 584.894 105.633 580.694 101.1C576.56 96.5667 574.494 90.7 574.494 83.5V55.4C574.494 51.7333 575.027 48.5667 576.094 45.9C577.16 43.1667 578.727 40.9 580.794 39.1L593.794 28.2C595.86 26.4667 598.494 25.1667 601.694 24.3C604.894 23.4333 608.66 23 612.994 23H637.394C638.994 23 640.16 23.3667 640.894 24.1C641.627 24.8333 641.994 26 641.994 27.6V39.7C641.994 40.5667 641.86 41.3 641.594 41.9C641.394 42.5 641.06 43 640.594 43.4L627.594 54.2C627.327 54.4667 626.894 54.7 626.294 54.9C625.76 55.1 625.16 55.2 624.494 55.2H612.194V72.1C612.194 73.5 612.627 74.5 613.494 75.1C614.36 75.6333 615.627 75.9 617.294 75.9H637.394C638.994 75.9 640.16 76.2667 640.894 77C641.627 77.7333 641.994 78.9 641.994 80.5V92.4C641.994 93.2667 641.86 94 641.594 94.6C641.394 95.2 641.06 95.7 640.594 96.1L627.594 106.9C627.327 107.167 626.894 107.4 626.294 107.6C625.76 107.8 625.16 107.9 624.494 107.9ZM637.394 96C638.66 96 639.56 95.7333 640.094 95.2C640.694 94.6 640.994 93.6667 640.994 92.4V80.5C640.994 79.2333 640.694 78.3333 640.094 77.8C639.56 77.2 638.66 76.9 637.394 76.9H617.294C615.227 76.9 613.694 76.5333 612.694 75.8C611.694 75 611.194 73.7667 611.194 72.1V48.3C611.194 46.6333 611.694 45.4 612.694 44.6C613.694 43.7333 615.227 43.3 617.294 43.3H637.394C638.66 43.3 639.56 43.0333 640.094 42.5C640.694 41.9 640.994 40.9667 640.994 39.7V27.6C640.994 26.3333 640.694 25.4333 640.094 24.9C639.56 24.3 638.66 24 637.394 24H612.994C604.66 24 598.46 25.7 594.394 29.1C590.394 32.4333 588.394 37.5667 588.394 44.5V75.6C588.394 82.5333 590.394 87.6667 594.394 91C598.46 94.3333 604.66 96 612.994 96H637.394ZM631.894 86V87H615.194C608.727 87 604.427 86 602.294 84C600.227 82 599.194 78.7 599.194 74.1V46.1C599.194 41.3667 600.26 38 602.394 36C604.527 34 608.794 33 615.194 33H631.894V34H615.194C609.327 34 605.36 34.9333 603.294 36.8C601.227 38.6 600.194 41.7 600.194 46.1V74.1C600.194 78.4333 601.194 81.5 603.194 83.3C605.194 85.1 609.194 86 615.194 86H631.894ZM682.348 65.7V68.8H721.348V65.7C721.348 63.9 721.181 62.2333 720.848 60.7C720.581 59.1667 720.214 57.7333 719.748 56.4L712.848 40.1C712.114 38.3667 711.348 36.9333 710.548 35.8C709.748 34.6 708.414 34 706.548 34H696.748C694.748 34 693.348 34.6 692.548 35.8C691.748 36.9333 691.014 38.3333 690.348 40L683.948 56.4C683.481 57.7333 683.081 59.1667 682.748 60.7C682.481 62.2333 682.348 63.9 682.348 65.7ZM698.348 45C698.614 44.4 698.881 43.9667 699.148 43.7C699.481 43.4333 699.848 43.3 700.248 43.3H702.748C703.148 43.3 703.481 43.4333 703.748 43.7C704.081 43.9667 704.381 44.4 704.648 45L709.348 60.2H693.648L698.348 45ZM721.348 87V69.8H682.348V87H681.348V65.7C681.348 63.8333 681.481 62.1333 681.748 60.6C682.081 59 682.514 57.4667 683.048 56L689.448 39.6C690.181 37.7333 691.014 36.1667 691.948 34.9C692.881 33.6333 694.481 33 696.748 33H706.548C708.748 33 710.281 33.6333 711.148 34.9C712.081 36.1667 712.948 37.7667 713.748 39.7L720.648 56C721.181 57.4667 721.581 59 721.848 60.6C722.181 62.1333 722.348 63.8333 722.348 65.7V87H721.348ZM692.648 92.4V78.4H710.348V92.4C710.348 93.6667 710.648 94.6 711.248 95.2C711.914 95.7333 712.914 96 714.248 96H729.348C730.614 96 731.514 95.7333 732.048 95.2C732.648 94.6 732.948 93.6667 732.948 92.4V66C732.948 64 732.614 61.7 731.948 59.1C731.348 56.5 730.381 53.4667 729.048 50L720.348 27.3C719.948 26.1667 719.314 25.3333 718.448 24.8C717.648 24.2667 716.614 24 715.348 24H688.448C687.114 24 686.014 24.2667 685.148 24.8C684.348 25.3333 683.748 26.1667 683.348 27.3L674.648 50C673.314 53.4667 672.314 56.5 671.648 59.1C671.048 61.7 670.748 64 670.748 66V92.4C670.748 93.6667 671.014 94.6 671.548 95.2C672.148 95.7333 673.081 96 674.348 96H689.048C690.314 96 691.214 95.7333 691.748 95.2C692.348 94.6 692.648 93.6667 692.648 92.4ZM679.248 106.9C678.981 107.167 678.548 107.4 677.948 107.6C677.414 107.8 676.814 107.9 676.148 107.9H661.448C659.848 107.9 658.681 107.533 657.948 106.8C657.214 106.067 656.848 104.9 656.848 103.3V76.9C656.848 74.8333 657.148 72.5 657.748 69.9C658.414 67.2333 659.448 64.1 660.848 60.5L669.448 37.9C669.648 37.3 669.881 36.8 670.148 36.4C670.481 35.9333 670.814 35.5333 671.148 35.2L671.248 35.1L684.048 24.4C684.581 23.9333 685.214 23.6 685.948 23.4C686.681 23.1333 687.514 23 688.448 23H715.348C716.881 23 718.114 23.3333 719.048 24C720.048 24.6 720.781 25.5667 721.248 26.9L729.948 49.6C731.348 53.2 732.348 56.3333 732.948 59C733.614 61.6 733.948 63.9333 733.948 66V92.4C733.948 93.2667 733.814 94 733.548 94.6C733.348 95.2 733.014 95.7 732.548 96.1L719.548 106.9C719.281 107.167 718.848 107.4 718.248 107.6C717.714 107.8 717.114 107.9 716.448 107.9H701.348C699.681 107.9 698.448 107.5 697.648 106.7C696.848 105.967 696.448 104.833 696.448 103.3V90.3H693.648V92.4C693.648 93.2667 693.514 94 693.248 94.6C693.048 95.2 692.714 95.7 692.248 96.1L679.248 106.9ZM771.455 107.9H755.955C754.355 107.9 753.189 107.533 752.455 106.8C751.722 106.067 751.355 104.9 751.355 103.3V38.5C751.355 37.6333 751.455 36.9 751.655 36.3C751.922 35.7 752.289 35.2 752.755 34.8L765.655 23.9C765.989 23.6333 766.422 23.4333 766.955 23.3C767.555 23.1 768.189 23 768.855 23H799.455C804.189 23 808.155 23.5 811.355 24.5C814.555 25.5 817.089 26.9 818.955 28.7C820.822 30.5 822.122 32.6667 822.855 35.2C823.655 37.7333 824.055 40.5 824.055 43.5V56.3C824.055 59.5 823.589 62.4333 822.655 65.1C821.789 67.7 820.255 69.9333 818.055 71.8L805.055 82.6C803.389 84 801.222 85.1667 798.555 86.1C795.955 86.9667 792.755 87.4667 788.955 87.6V92.4C788.955 93.2667 788.822 94 788.555 94.6C788.355 95.2 788.022 95.7 787.555 96.1L774.555 106.9C774.289 107.167 773.855 107.4 773.255 107.6C772.722 107.8 772.122 107.9 771.455 107.9ZM784.355 96C785.622 96 786.522 95.7333 787.055 95.2C787.655 94.6 787.955 93.6667 787.955 92.4V75.8H799.455C808.522 75.8 814.722 74 818.055 70.4C821.389 66.8 823.055 62.1 823.055 56.3V43.5C823.055 37.7 821.389 33 818.055 29.4C814.722 25.8 808.522 24 799.455 24H768.855C767.589 24 766.655 24.3 766.055 24.9C765.522 25.4333 765.255 26.3333 765.255 27.6V92.4C765.255 93.6667 765.522 94.6 766.055 95.2C766.655 95.7333 767.589 96 768.855 96H784.355ZM798.055 67.3H777.455V87H776.455V33H798.055C801.189 33 803.722 33.3667 805.655 34.1C807.655 34.7667 809.189 35.7 810.255 36.9C811.322 38.1 812.055 39.5333 812.455 41.2C812.855 42.8667 813.055 44.6667 813.055 46.6V54C813.055 55.9333 812.855 57.7333 812.455 59.4C812.055 61 811.322 62.4 810.255 63.6C809.189 64.7333 807.655 65.6333 805.655 66.3C803.722 66.9667 801.189 67.3 798.055 67.3ZM777.455 66.3H798.055C800.989 66.3 803.355 66 805.155 65.4C807.022 64.8 808.455 63.9667 809.455 62.9C810.455 61.7667 811.122 60.4667 811.455 59C811.855 57.4667 812.055 55.8 812.055 54V46.6C812.055 44.8 811.855 43.1333 811.455 41.6C811.122 40.0667 810.455 38.7333 809.455 37.6C808.455 36.4667 807.022 35.6 805.155 35C803.355 34.3333 800.989 34 798.055 34H777.455V66.3ZM787.755 42.7H796.755C798.689 42.7 799.955 43.2 800.555 44.2C801.155 45.2 801.455 46.3333 801.455 47.6V52.9C801.455 54.1667 801.155 55.3 800.555 56.3C799.955 57.3 798.689 57.8 796.755 57.8H787.755V42.7Z" fill="white"/>
<path d="M0.661176 23.0337L0.5 23.1822V23.4014V116.918V117.418H1H53.0375H53.1918L53.3192 117.331L58.3141 113.926C58.8832 113.538 58.6086 112.647 57.9197 112.647H54.6117H6.27639V31.9486V28.4292V19.4563C6.27639 18.8463 5.55058 18.5282 5.10204 18.9415L0.661176 23.0337ZM5.77969 19.6769C5.77961 19.6769 5.77953 19.677 5.77946 19.6771L5.77969 19.6769L5.77639 19.6733L5.77969 19.6769ZM56.0542 32.4486H56.278L56.427 32.2818L59.2742 29.0956C59.6492 28.6759 59.4069 27.9292 58.7604 27.9292H37.4514H15.832H15.332V28.4292V31.9486V32.4486H15.832H56.0542Z" fill="white" stroke="white"/>
<path d="M29.9097 92.1542H74.657L78.0541 89.1892C78.1237 89.1285 78.0808 89.0139 77.9884 89.0139H67.732H33.1778V82.8064C33.1778 82.6299 32.9657 82.5399 32.8388 82.6626L29.9097 85.4944V92.1542Z" fill="white"/>
<path d="M67.732 54.9486V82.4778H70.8862V66.8917V51.3055L54.2945 51.3055L33.1778 51.3055V45.107C33.1778 44.9306 32.966 44.8406 32.839 44.963L29.9097 47.7861V54.9486H33.1778H67.732Z" fill="white"/>
<path d="M29.9097 92.1542H74.657L78.0541 89.1892C78.1237 89.1285 78.0808 89.0139 77.9884 89.0139H67.732H33.1778V82.8064C33.1778 82.6299 32.9657 82.5399 32.8388 82.6626L29.9097 85.4944V92.1542Z" stroke="white"/>
<path d="M67.732 54.9486V82.4778H70.8862V66.8917V51.3055L54.2945 51.3055L33.1778 51.3055V45.107C33.1778 44.9306 32.966 44.8406 32.839 44.963L29.9097 47.7861V54.9486H33.1778H67.732Z" stroke="white"/>
<path d="M59.5709 19.1278V18.6278H59.0709H6.27917H5.77917V19.1278V112.645V113.145H6.27917H58.3167H58.8167V112.645V103.886V103.386H58.3167H15.8292V28.3861H37.2H59.0709H59.5709V27.8861V19.1278Z" stroke="white"/>
<g filter="url(#filter0_d_42_25)">
<path d="M65.1042 31.6972H92.0028L92.0644 116.667H100.801L105.537 113.003C105.688 112.886 105.605 112.645 105.415 112.645H97.0306V70.1598V27.675H85.7181H70.132V19.4299C70.132 19.2609 69.9352 19.1681 69.8048 19.2756L65.1042 23.15V31.6972Z" fill="#F2FAFF"/>
<path d="M65.1042 31.6972H92.0028L92.0644 116.667H100.801L105.537 113.003C105.688 112.886 105.605 112.645 105.415 112.645H97.0306V70.1598V27.675H85.7181H70.132V19.4299C70.132 19.2609 69.9352 19.1681 69.8048 19.2756L65.1042 23.15V31.6972Z" stroke="white"/>
</g>
<g filter="url(#filter1_d_42_25)">
<path d="M105.829 19.1278H70.132V27.675H97.0306L97.0922 112.645H105.829V19.1278Z" stroke="white" shape-rendering="crispEdges"/>
</g>
<path d="M78.1765 44.7694H33.1986V51.3055H71.0209V82.4778H33.1986V89.0139H78.1765V44.7694Z" stroke="#FDFCFC"/>
<defs>
<filter id="filter0_d_42_25" x="60.6042" y="18.7286" width="49.5119" height="106.438" filterUnits="userSpaceOnUse" color-interpolation-filters="sRGB">
<feFlood flood-opacity="0" result="BackgroundImageFix"/>
<feColorMatrix in="SourceAlpha" type="matrix" values="0 0 0 0 0 0 0 0 0 0 0 0 0 0 0 0 0 0 127 0" result="hardAlpha"/>
<feOffset dy="4"/>
<feGaussianBlur stdDeviation="2"/>
<feComposite in2="hardAlpha" operator="out"/>
<feColorMatrix type="matrix" values="0 0 0 0 0 0 0 0 0 0 0 0 0 0 0 0 0 0 0.25 0"/>
<feBlend mode="normal" in2="BackgroundImageFix" result="effect1_dropShadow_42_25"/>
<feBlend mode="normal" in="SourceGraphic" in2="effect1_dropShadow_42_25" result="shape"/>
</filter>
<filter id="filter1_d_42_25" x="65.632" y="18.6278" width="44.6973" height="102.517" filterUnits="userSpaceOnUse" color-interpolation-filters="sRGB">
<feFlood flood-opacity="0" result="BackgroundImageFix"/>
<feColorMatrix in="SourceAlpha" type="matrix" values="0 0 0 0 0 0 0 0 0 0 0 0 0 0 0 0 0 0 127 0" result="hardAlpha"/>
<feOffset dy="4"/>
<feGaussianBlur stdDeviation="2"/>
<feComposite in2="hardAlpha" operator="out"/>
<feColorMatrix type="matrix" values="0 0 0 0 0 0 0 0 0 0 0 0 0 0 0 0 0 0 0.25 0"/>
<feBlend mode="normal" in2="BackgroundImageFix" result="effect1_dropShadow_42_25"/>
<feBlend mode="normal" in="SourceGraphic" in2="effect1_dropShadow_42_25" result="shape"/>
</filter>
</defs>
</svg>
