<svg width="700" height="85" viewBox="0 0 700 85" fill="none" xmlns="http://www.w3.org/2000/svg">
<path d="M39.5 84.9H23.3C21.7 84.9 20.5333 84.5333 19.8 83.8C19.0667 83.0667 18.7 81.9 18.7 80.3V32.2H5C3.4 32.2 2.23333 31.8333 1.5 31.1C0.766667 30.3667 0.4 29.2 0.4 27.6V15.5C0.4 14.6333 0.5 13.9 0.7 13.3C0.966667 12.7 1.33333 12.2 1.8 11.8L14.7 0.899998C15.0333 0.633331 15.4667 0.43333 16 0.299994C16.6 0.0999968 17.2333 -1.90735e-06 17.9 -1.90735e-06H70.7C72.3 -1.90735e-06 73.4667 0.366664 74.2 1.1C74.9333 1.83333 75.3 3 75.3 4.6V16.7C75.3 17.5667 75.1667 18.3 74.9 18.9C74.7 19.5 74.3667 20 73.9 20.4L60.9 31.2C60.6333 31.4667 60.2 31.7 59.6 31.9C59.0667 32.1 58.4667 32.2 57.8 32.2H57V69.4C57 70.2667 56.8667 71 56.6 71.6C56.4 72.2 56.0667 72.7 55.6 73.1L42.6 83.9C42.3333 84.1667 41.9 84.4 41.3 84.6C40.7667 84.8 40.1667 84.9 39.5 84.9ZM52.4 73C53.6667 73 54.5667 72.7333 55.1 72.2C55.7 71.6 56 70.6667 56 69.4V20.3H70.7C71.9667 20.3 72.8667 20.0333 73.4 19.5C74 18.9 74.3 17.9667 74.3 16.7V4.6C74.3 3.33333 74 2.43333 73.4 1.9C72.8667 1.3 71.9667 0.999997 70.7 0.999997H17.9C16.6333 0.999997 15.7 1.3 15.1 1.9C14.5667 2.43333 14.3 3.33333 14.3 4.6V16.7C14.3 17.9667 14.5667 18.9 15.1 19.5C15.7 20.0333 16.6333 20.3 17.9 20.3H32.6V69.4C32.6 70.6667 32.8667 71.6 33.4 72.2C34 72.7333 34.9333 73 36.2 73H52.4ZM43.8 64V11H23.3V9.99999H65.3V11H44.8V64H43.8ZM114.786 64V9.99999H115.786V36.5H154.186V9.99999H155.186V64H154.186V37.5H115.786V64H114.786ZM123.086 73C124.353 73 125.253 72.7333 125.786 72.2C126.386 71.6 126.686 70.6667 126.686 69.4V47.2H143.386V69.4C143.386 70.6667 143.653 71.6 144.186 72.2C144.786 72.7333 145.719 73 146.986 73H162.486C163.753 73 164.653 72.7333 165.186 72.2C165.786 71.6 166.086 70.6667 166.086 69.4V4.6C166.086 3.33333 165.786 2.43333 165.186 1.9C164.653 1.3 163.753 0.999997 162.486 0.999997H146.986C145.719 0.999997 144.786 1.3 144.186 1.9C143.653 2.43333 143.386 3.33333 143.386 4.6V26.3H126.686V4.6C126.686 3.33333 126.386 2.43333 125.786 1.9C125.253 1.3 124.353 0.999997 123.086 0.999997H107.586C106.319 0.999997 105.386 1.3 104.786 1.9C104.253 2.43333 103.986 3.33333 103.986 4.6V69.4C103.986 70.6667 104.253 71.6 104.786 72.2C105.386 72.7333 106.319 73 107.586 73H123.086ZM126.286 73.1L113.286 83.9C113.019 84.1667 112.586 84.4 111.986 84.6C111.453 84.8 110.853 84.9 110.186 84.9H94.6859C93.0859 84.9 91.9193 84.5333 91.1859 83.8C90.4526 83.0667 90.0859 81.9 90.0859 80.3V15.5C90.0859 14.6333 90.1859 13.9 90.3859 13.3C90.6526 12.7 91.0193 12.2 91.4859 11.8L104.386 0.899998C104.719 0.633331 105.153 0.43333 105.686 0.299994C106.286 0.0999968 106.919 -1.90735e-06 107.586 -1.90735e-06H123.086C124.686 -1.90735e-06 125.853 0.366664 126.586 1.1C127.319 1.83333 127.686 3 127.686 4.6V25.3H129.486V15.5C129.486 14.6333 129.586 13.9 129.786 13.3C130.053 12.7 130.419 12.2 130.886 11.8L143.786 0.899998C144.119 0.633331 144.553 0.43333 145.086 0.299994C145.686 0.0999968 146.319 -1.90735e-06 146.986 -1.90735e-06H162.486C164.086 -1.90735e-06 165.253 0.366664 165.986 1.1C166.719 1.83333 167.086 3 167.086 4.6V69.4C167.086 70.2667 166.953 71 166.686 71.6C166.486 72.2 166.153 72.7 165.686 73.1L152.686 83.9C152.419 84.1667 151.986 84.4 151.386 84.6C150.853 84.8 150.253 84.9 149.586 84.9H134.086C132.486 84.9 131.319 84.5333 130.586 83.8C129.853 83.0667 129.486 81.9 129.486 80.3V59.1H127.686V69.4C127.686 70.2667 127.553 71 127.286 71.6C127.086 72.2 126.753 72.7 126.286 73.1ZM233.523 11H211.723V39.9H233.523C237.657 39.9 240.423 38.9 241.823 36.9C243.223 34.9 243.923 32.0667 243.923 28.4V21.4C243.923 18.3333 243.057 15.8333 241.323 13.9C239.657 11.9667 237.057 11 233.523 11ZM222.523 19H230.023C231.757 19 232.923 19.4667 233.523 20.4C234.123 21.2667 234.423 22.3667 234.423 23.7V27.1C234.423 28.4333 234.123 29.5667 233.523 30.5C232.923 31.3667 231.757 31.8 230.023 31.8H222.523V19ZM211.723 64H210.723V9.99999H233.523C237.39 9.99999 240.257 11.1 242.123 13.3C243.99 15.4333 244.923 18.1333 244.923 21.4V28.3C244.923 31.3667 244.523 33.9 243.723 35.9C242.923 37.8333 241.323 39.1667 238.923 39.9H240.023C244.09 39.9 247.123 40.8333 249.123 42.7C251.123 44.5 252.123 47.1333 252.123 50.6V64H251.123V50.6C251.123 47.3333 250.223 44.9 248.423 43.3C246.623 41.6333 243.823 40.8 240.023 40.8H211.723V64ZM218.923 73C220.19 73 221.09 72.7333 221.623 72.2C222.223 71.6 222.523 70.6667 222.523 69.4V49.8H236.523C237.923 49.8 238.89 50.1667 239.423 50.9C240.023 51.5667 240.323 52.6333 240.323 54.1V69.4C240.323 70.6667 240.59 71.6 241.123 72.2C241.723 72.7333 242.657 73 243.923 73H259.423C260.69 73 261.59 72.7333 262.123 72.2C262.723 71.6 263.023 70.6667 263.023 69.4V48.2C263.023 44 261.89 40.6333 259.623 38.1C257.423 35.5667 254.523 34.1 250.923 33.7C252.99 32.8333 254.423 31.4333 255.223 29.5C256.09 27.5 256.523 25.1 256.523 22.3V17.7C256.523 12.7667 255.09 8.76666 252.223 5.7C249.423 2.56666 244.29 0.999997 236.823 0.999997H203.523C202.257 0.999997 201.323 1.3 200.723 1.9C200.19 2.43333 199.923 3.33333 199.923 4.6V69.4C199.923 70.6667 200.19 71.6 200.723 72.2C201.323 72.7333 202.257 73 203.523 73H218.923ZM222.123 73.1L209.123 83.9C208.857 84.1667 208.423 84.4 207.823 84.6C207.29 84.8 206.69 84.9 206.023 84.9H190.623C189.023 84.9 187.857 84.5333 187.123 83.8C186.39 83.0667 186.023 81.9 186.023 80.3V15.5C186.023 14.6333 186.123 13.9 186.323 13.3C186.59 12.7 186.957 12.2 187.423 11.8L200.323 0.899998C200.657 0.633331 201.09 0.43333 201.623 0.299994C202.223 0.0999968 202.857 -1.90735e-06 203.523 -1.90735e-06H236.823C244.757 -1.90735e-06 250.19 1.66667 253.123 5C256.057 8.26666 257.523 12.5 257.523 17.7V22.3C257.523 24.7667 257.223 26.9333 256.623 28.8C256.023 30.6 255.057 32.0667 253.723 33.2H253.623C256.757 34.0667 259.257 35.8 261.123 38.4C263.057 41 264.023 44.2667 264.023 48.2V69.4C264.023 70.2667 263.89 71 263.623 71.6C263.423 72.2 263.09 72.7 262.623 73.1L249.623 83.9C249.357 84.1667 248.923 84.4 248.323 84.6C247.79 84.8 247.19 84.9 246.523 84.9H231.023C229.423 84.9 228.257 84.5333 227.523 83.8C226.79 83.0667 226.423 81.9 226.423 80.3V65C226.423 63.9333 226.223 63.1333 225.823 62.6C225.423 62 224.69 61.7 223.623 61.7H223.523V69.4C223.523 70.2667 223.39 71 223.123 71.6C222.923 72.2 222.59 72.7 222.123 73.1ZM331.301 84.9H284.901C283.301 84.9 282.134 84.5333 281.401 83.8C280.667 83.0667 280.301 81.9 280.301 80.3V15.5C280.301 14.6333 280.401 13.9 280.601 13.3C280.867 12.7 281.234 12.2 281.701 11.8L294.601 0.899998C294.934 0.633331 295.367 0.43333 295.901 0.299994C296.501 0.0999968 297.134 -1.90735e-06 297.801 -1.90735e-06H344.201C345.801 -1.90735e-06 346.967 0.366664 347.701 1.1C348.434 1.83333 348.801 3 348.801 4.6V16.3C348.801 17.1667 348.667 17.9 348.401 18.5C348.201 19.1 347.867 19.6 347.401 20L338.801 27.1C339.467 27.4333 339.934 27.9333 340.201 28.6C340.534 29.2667 340.701 30.1333 340.701 31.2V41.9C340.701 42.7667 340.567 43.5 340.301 44.1C340.101 44.7 339.767 45.2 339.301 45.6L330.401 53.1H344.201C345.801 53.1 346.967 53.4667 347.701 54.2C348.434 54.9333 348.801 56.1 348.801 57.7V69.4C348.801 70.2667 348.667 71 348.401 71.6C348.201 72.2 347.867 72.7 347.401 73.1L334.401 83.9C334.134 84.1667 333.701 84.4 333.101 84.6C332.567 84.8 331.967 84.9 331.301 84.9ZM344.201 73C345.467 73 346.367 72.7333 346.901 72.2C347.501 71.6 347.801 70.6667 347.801 69.4V57.7C347.801 56.4333 347.501 55.5333 346.901 55C346.367 54.4 345.467 54.1 344.201 54.1H316.601V45.5H336.101C337.367 45.5 338.267 45.2333 338.801 44.7C339.401 44.1 339.701 43.1667 339.701 41.9V31.2C339.701 29.9333 339.401 29.0333 338.801 28.5C338.267 27.9 337.367 27.6 336.101 27.6H316.601V19.9H344.201C345.467 19.9 346.367 19.6333 346.901 19.1C347.501 18.5 347.801 17.5667 347.801 16.3V4.6C347.801 3.33333 347.501 2.43333 346.901 1.9C346.367 1.3 345.467 0.999997 344.201 0.999997H297.801C296.534 0.999997 295.601 1.3 295.001 1.9C294.467 2.43333 294.201 3.33333 294.201 4.6V69.4C294.201 70.6667 294.467 71.6 295.001 72.2C295.601 72.7333 296.534 73 297.801 73H344.201ZM338.801 63V64H305.101V9.99999H338.801V11H306.101V36.1H330.701V37.1H306.101V63H338.801ZM416.691 84.9H370.291C368.691 84.9 367.525 84.5333 366.791 83.8C366.058 83.0667 365.691 81.9 365.691 80.3V15.5C365.691 14.6333 365.791 13.9 365.991 13.3C366.258 12.7 366.625 12.2 367.091 11.8L379.991 0.899998C380.325 0.633331 380.758 0.43333 381.291 0.299994C381.891 0.0999968 382.525 -1.90735e-06 383.191 -1.90735e-06H429.591C431.191 -1.90735e-06 432.358 0.366664 433.091 1.1C433.825 1.83333 434.191 3 434.191 4.6V16.3C434.191 17.1667 434.058 17.9 433.791 18.5C433.591 19.1 433.258 19.6 432.791 20L424.191 27.1C424.858 27.4333 425.325 27.9333 425.591 28.6C425.925 29.2667 426.091 30.1333 426.091 31.2V41.9C426.091 42.7667 425.958 43.5 425.691 44.1C425.491 44.7 425.158 45.2 424.691 45.6L415.791 53.1H429.591C431.191 53.1 432.358 53.4667 433.091 54.2C433.825 54.9333 434.191 56.1 434.191 57.7V69.4C434.191 70.2667 434.058 71 433.791 71.6C433.591 72.2 433.258 72.7 432.791 73.1L419.791 83.9C419.525 84.1667 419.091 84.4 418.491 84.6C417.958 84.8 417.358 84.9 416.691 84.9ZM429.591 73C430.858 73 431.758 72.7333 432.291 72.2C432.891 71.6 433.191 70.6667 433.191 69.4V57.7C433.191 56.4333 432.891 55.5333 432.291 55C431.758 54.4 430.858 54.1 429.591 54.1H401.991V45.5H421.491C422.758 45.5 423.658 45.2333 424.191 44.7C424.791 44.1 425.091 43.1667 425.091 41.9V31.2C425.091 29.9333 424.791 29.0333 424.191 28.5C423.658 27.9 422.758 27.6 421.491 27.6H401.991V19.9H429.591C430.858 19.9 431.758 19.6333 432.291 19.1C432.891 18.5 433.191 17.5667 433.191 16.3V4.6C433.191 3.33333 432.891 2.43333 432.291 1.9C431.758 1.3 430.858 0.999997 429.591 0.999997H383.191C381.925 0.999997 380.991 1.3 380.391 1.9C379.858 2.43333 379.591 3.33333 379.591 4.6V69.4C379.591 70.6667 379.858 71.6 380.391 72.2C380.991 72.7333 381.925 73 383.191 73H429.591ZM424.191 63V64H390.491V9.99999H424.191V11H391.491V36.1H416.091V37.1H391.491V63H424.191ZM499.494 84.9H475.094C466.36 84.9 459.894 82.6333 455.694 78.1C451.56 73.5667 449.494 67.7 449.494 60.5V32.4C449.494 28.7333 450.027 25.5667 451.094 22.9C452.16 20.1667 453.727 17.9 455.794 16.1L468.794 5.2C470.86 3.46666 473.494 2.16666 476.694 1.3C479.894 0.433332 483.66 -1.90735e-06 487.994 -1.90735e-06H512.394C513.994 -1.90735e-06 515.16 0.366664 515.894 1.1C516.627 1.83333 516.994 3 516.994 4.6V16.7C516.994 17.5667 516.86 18.3 516.594 18.9C516.394 19.5 516.06 20 515.594 20.4L502.594 31.2C502.327 31.4667 501.894 31.7 501.294 31.9C500.76 32.1 500.16 32.2 499.494 32.2H487.194V49.1C487.194 50.5 487.627 51.5 488.494 52.1C489.36 52.6333 490.627 52.9 492.294 52.9H512.394C513.994 52.9 515.16 53.2667 515.894 54C516.627 54.7333 516.994 55.9 516.994 57.5V69.4C516.994 70.2667 516.86 71 516.594 71.6C516.394 72.2 516.06 72.7 515.594 73.1L502.594 83.9C502.327 84.1667 501.894 84.4 501.294 84.6C500.76 84.8 500.16 84.9 499.494 84.9ZM512.394 73C513.66 73 514.56 72.7333 515.094 72.2C515.694 71.6 515.994 70.6667 515.994 69.4V57.5C515.994 56.2333 515.694 55.3333 515.094 54.8C514.56 54.2 513.66 53.9 512.394 53.9H492.294C490.227 53.9 488.694 53.5333 487.694 52.8C486.694 52 486.194 50.7667 486.194 49.1V25.3C486.194 23.6333 486.694 22.4 487.694 21.6C488.694 20.7333 490.227 20.3 492.294 20.3H512.394C513.66 20.3 514.56 20.0333 515.094 19.5C515.694 18.9 515.994 17.9667 515.994 16.7V4.6C515.994 3.33333 515.694 2.43333 515.094 1.9C514.56 1.3 513.66 0.999997 512.394 0.999997H487.994C479.66 0.999997 473.46 2.7 469.394 6.1C465.394 9.43333 463.394 14.5667 463.394 21.5V52.6C463.394 59.5333 465.394 64.6667 469.394 68C473.46 71.3333 479.66 73 487.994 73H512.394ZM506.894 63V64H490.194C483.727 64 479.427 63 477.294 61C475.227 59 474.194 55.7 474.194 51.1V23.1C474.194 18.3667 475.26 15 477.394 13C479.527 11 483.794 9.99999 490.194 9.99999H506.894V11H490.194C484.327 11 480.36 11.9333 478.294 13.8C476.227 15.6 475.194 18.7 475.194 23.1V51.1C475.194 55.4333 476.194 58.5 478.194 60.3C480.194 62.1 484.194 63 490.194 63H506.894ZM557.348 42.7V45.8H596.348V42.7C596.348 40.9 596.181 39.2333 595.848 37.7C595.581 36.1667 595.214 34.7333 594.748 33.4L587.848 17.1C587.114 15.3667 586.348 13.9333 585.548 12.8C584.748 11.6 583.414 11 581.548 11H571.748C569.748 11 568.348 11.6 567.548 12.8C566.748 13.9333 566.014 15.3333 565.348 17L558.948 33.4C558.481 34.7333 558.081 36.1667 557.748 37.7C557.481 39.2333 557.348 40.9 557.348 42.7ZM573.348 22C573.614 21.4 573.881 20.9667 574.148 20.7C574.481 20.4333 574.848 20.3 575.248 20.3H577.748C578.148 20.3 578.481 20.4333 578.748 20.7C579.081 20.9667 579.381 21.4 579.648 22L584.348 37.2H568.648L573.348 22ZM596.348 64V46.8H557.348V64H556.348V42.7C556.348 40.8333 556.481 39.1333 556.748 37.6C557.081 36 557.514 34.4667 558.048 33L564.448 16.6C565.181 14.7333 566.014 13.1667 566.948 11.9C567.881 10.6333 569.481 9.99999 571.748 9.99999H581.548C583.748 9.99999 585.281 10.6333 586.148 11.9C587.081 13.1667 587.948 14.7667 588.748 16.7L595.648 33C596.181 34.4667 596.581 36 596.848 37.6C597.181 39.1333 597.348 40.8333 597.348 42.7V64H596.348ZM567.648 69.4V55.4H585.348V69.4C585.348 70.6667 585.648 71.6 586.248 72.2C586.914 72.7333 587.914 73 589.248 73H604.348C605.614 73 606.514 72.7333 607.048 72.2C607.648 71.6 607.948 70.6667 607.948 69.4V43C607.948 41 607.614 38.7 606.948 36.1C606.348 33.5 605.381 30.4667 604.048 27L595.348 4.3C594.948 3.16666 594.314 2.33333 593.448 1.8C592.648 1.26666 591.614 0.999997 590.348 0.999997H563.448C562.114 0.999997 561.014 1.26666 560.148 1.8C559.348 2.33333 558.748 3.16666 558.348 4.3L549.648 27C548.314 30.4667 547.314 33.5 546.648 36.1C546.048 38.7 545.748 41 545.748 43V69.4C545.748 70.6667 546.014 71.6 546.548 72.2C547.148 72.7333 548.081 73 549.348 73H564.048C565.314 73 566.214 72.7333 566.748 72.2C567.348 71.6 567.648 70.6667 567.648 69.4ZM554.248 83.9C553.981 84.1667 553.548 84.4 552.948 84.6C552.414 84.8 551.814 84.9 551.148 84.9H536.448C534.848 84.9 533.681 84.5333 532.948 83.8C532.214 83.0667 531.848 81.9 531.848 80.3V53.9C531.848 51.8333 532.148 49.5 532.748 46.9C533.414 44.2333 534.448 41.1 535.848 37.5L544.448 14.9C544.648 14.3 544.881 13.8 545.148 13.4C545.481 12.9333 545.814 12.5333 546.148 12.2L546.248 12.1L559.048 1.4C559.581 0.933329 560.214 0.599996 560.948 0.399999C561.681 0.133332 562.514 -1.90735e-06 563.448 -1.90735e-06H590.348C591.881 -1.90735e-06 593.114 0.333331 594.048 0.999997C595.048 1.6 595.781 2.56666 596.248 3.9L604.948 26.6C606.348 30.2 607.348 33.3333 607.948 36C608.614 38.6 608.948 40.9333 608.948 43V69.4C608.948 70.2667 608.814 71 608.548 71.6C608.348 72.2 608.014 72.7 607.548 73.1L594.548 83.9C594.281 84.1667 593.848 84.4 593.248 84.6C592.714 84.8 592.114 84.9 591.448 84.9H576.348C574.681 84.9 573.448 84.5 572.648 83.7C571.848 82.9667 571.448 81.8333 571.448 80.3V67.3H568.648V69.4C568.648 70.2667 568.514 71 568.248 71.6C568.048 72.2 567.714 72.7 567.248 73.1L554.248 83.9ZM646.455 84.9H630.955C629.355 84.9 628.189 84.5333 627.455 83.8C626.722 83.0667 626.355 81.9 626.355 80.3V15.5C626.355 14.6333 626.455 13.9 626.655 13.3C626.922 12.7 627.289 12.2 627.755 11.8L640.655 0.899998C640.989 0.633331 641.422 0.43333 641.955 0.299994C642.555 0.0999968 643.189 -1.90735e-06 643.855 -1.90735e-06H674.455C679.189 -1.90735e-06 683.155 0.499998 686.355 1.5C689.555 2.5 692.089 3.9 693.955 5.7C695.822 7.5 697.122 9.66666 697.855 12.2C698.655 14.7333 699.055 17.5 699.055 20.5V33.3C699.055 36.5 698.589 39.4333 697.655 42.1C696.789 44.7 695.255 46.9333 693.055 48.8L680.055 59.6C678.389 61 676.222 62.1667 673.555 63.1C670.955 63.9667 667.755 64.4667 663.955 64.6V69.4C663.955 70.2667 663.822 71 663.555 71.6C663.355 72.2 663.022 72.7 662.555 73.1L649.555 83.9C649.289 84.1667 648.855 84.4 648.255 84.6C647.722 84.8 647.122 84.9 646.455 84.9ZM659.355 73C660.622 73 661.522 72.7333 662.055 72.2C662.655 71.6 662.955 70.6667 662.955 69.4V52.8H674.455C683.522 52.8 689.722 51 693.055 47.4C696.389 43.8 698.055 39.1 698.055 33.3V20.5C698.055 14.7 696.389 10 693.055 6.4C689.722 2.8 683.522 0.999997 674.455 0.999997H643.855C642.589 0.999997 641.655 1.3 641.055 1.9C640.522 2.43333 640.255 3.33333 640.255 4.6V69.4C640.255 70.6667 640.522 71.6 641.055 72.2C641.655 72.7333 642.589 73 643.855 73H659.355ZM673.055 44.3H652.455V64H651.455V9.99999H673.055C676.189 9.99999 678.722 10.3667 680.655 11.1C682.655 11.7667 684.189 12.7 685.255 13.9C686.322 15.1 687.055 16.5333 687.455 18.2C687.855 19.8667 688.055 21.6667 688.055 23.6V31C688.055 32.9333 687.855 34.7333 687.455 36.4C687.055 38 686.322 39.4 685.255 40.6C684.189 41.7333 682.655 42.6333 680.655 43.3C678.722 43.9667 676.189 44.3 673.055 44.3ZM652.455 43.3H673.055C675.989 43.3 678.355 43 680.155 42.4C682.022 41.8 683.455 40.9667 684.455 39.9C685.455 38.7667 686.122 37.4667 686.455 36C686.855 34.4667 687.055 32.8 687.055 31V23.6C687.055 21.8 686.855 20.1333 686.455 18.6C686.122 17.0667 685.455 15.7333 684.455 14.6C683.455 13.4667 682.022 12.6 680.155 12C678.355 11.3333 675.989 11 673.055 11H652.455V43.3ZM662.755 19.7H671.755C673.689 19.7 674.955 20.2 675.555 21.2C676.155 22.2 676.455 23.3333 676.455 24.6V29.9C676.455 31.1667 676.155 32.3 675.555 33.3C674.955 34.3 673.689 34.8 671.755 34.8H662.755V19.7Z" fill="white"/>
</svg>
