<svg width="859" height="128" viewBox="0 0 859 128" fill="none" xmlns="http://www.w3.org/2000/svg">
<path d="M158.5 107.9H142.3C140.7 107.9 139.533 107.533 138.8 106.8C138.067 106.067 137.7 104.9 137.7 103.3V55.2H124C122.4 55.2 121.233 54.8333 120.5 54.1C119.767 53.3667 119.4 52.2 119.4 50.6V38.5C119.4 37.6333 119.5 36.9 119.7 36.3C119.967 35.7 120.333 35.2 120.8 34.8L133.7 23.9C134.033 23.6333 134.467 23.4333 135 23.3C135.6 23.1 136.233 23 136.9 23H189.7C191.3 23 192.467 23.3667 193.2 24.1C193.933 24.8333 194.3 26 194.3 27.6V39.7C194.3 40.5667 194.167 41.3 193.9 41.9C193.7 42.5 193.367 43 192.9 43.4L179.9 54.2C179.633 54.4667 179.2 54.7 178.6 54.9C178.067 55.1 177.467 55.2 176.8 55.2H176V92.4C176 93.2667 175.867 94 175.6 94.6C175.4 95.2 175.067 95.7 174.6 96.1L161.6 106.9C161.333 107.167 160.9 107.4 160.3 107.6C159.767 107.8 159.167 107.9 158.5 107.9ZM171.4 96C172.667 96 173.567 95.7333 174.1 95.2C174.7 94.6 175 93.6667 175 92.4V43.3H189.7C190.967 43.3 191.867 43.0333 192.4 42.5C193 41.9 193.3 40.9667 193.3 39.7V27.6C193.3 26.3333 193 25.4333 192.4 24.9C191.867 24.3 190.967 24 189.7 24H136.9C135.633 24 134.7 24.3 134.1 24.9C133.567 25.4333 133.3 26.3333 133.3 27.6V39.7C133.3 40.9667 133.567 41.9 134.1 42.5C134.7 43.0333 135.633 43.3 136.9 43.3H151.6V92.4C151.6 93.6667 151.867 94.6 152.4 95.2C153 95.7333 153.933 96 155.2 96H171.4ZM162.8 87V34H142.3V33H184.3V34H163.8V87H162.8ZM233.786 87V33H234.786V59.5H273.186V33H274.186V87H273.186V60.5H234.786V87H233.786ZM242.086 96C243.353 96 244.253 95.7333 244.786 95.2C245.386 94.6 245.686 93.6667 245.686 92.4V70.2H262.386V92.4C262.386 93.6667 262.653 94.6 263.186 95.2C263.786 95.7333 264.719 96 265.986 96H281.486C282.753 96 283.653 95.7333 284.186 95.2C284.786 94.6 285.086 93.6667 285.086 92.4V27.6C285.086 26.3333 284.786 25.4333 284.186 24.9C283.653 24.3 282.753 24 281.486 24H265.986C264.719 24 263.786 24.3 263.186 24.9C262.653 25.4333 262.386 26.3333 262.386 27.6V49.3H245.686V27.6C245.686 26.3333 245.386 25.4333 244.786 24.9C244.253 24.3 243.353 24 242.086 24H226.586C225.319 24 224.386 24.3 223.786 24.9C223.253 25.4333 222.986 26.3333 222.986 27.6V92.4C222.986 93.6667 223.253 94.6 223.786 95.2C224.386 95.7333 225.319 96 226.586 96H242.086ZM245.286 96.1L232.286 106.9C232.019 107.167 231.586 107.4 230.986 107.6C230.453 107.8 229.853 107.9 229.186 107.9H213.686C212.086 107.9 210.919 107.533 210.186 106.8C209.453 106.067 209.086 104.9 209.086 103.3V38.5C209.086 37.6333 209.186 36.9 209.386 36.3C209.653 35.7 210.019 35.2 210.486 34.8L223.386 23.9C223.719 23.6333 224.153 23.4333 224.686 23.3C225.286 23.1 225.919 23 226.586 23H242.086C243.686 23 244.853 23.3667 245.586 24.1C246.319 24.8333 246.686 26 246.686 27.6V48.3H248.486V38.5C248.486 37.6333 248.586 36.9 248.786 36.3C249.053 35.7 249.419 35.2 249.886 34.8L262.786 23.9C263.119 23.6333 263.553 23.4333 264.086 23.3C264.686 23.1 265.319 23 265.986 23H281.486C283.086 23 284.253 23.3667 284.986 24.1C285.719 24.8333 286.086 26 286.086 27.6V92.4C286.086 93.2667 285.953 94 285.686 94.6C285.486 95.2 285.153 95.7 284.686 96.1L271.686 106.9C271.419 107.167 270.986 107.4 270.386 107.6C269.853 107.8 269.253 107.9 268.586 107.9H253.086C251.486 107.9 250.319 107.533 249.586 106.8C248.853 106.067 248.486 104.9 248.486 103.3V82.1H246.686V92.4C246.686 93.2667 246.553 94 246.286 94.6C246.086 95.2 245.753 95.7 245.286 96.1ZM352.523 34H330.723V62.9H352.523C356.657 62.9 359.423 61.9 360.823 59.9C362.223 57.9 362.923 55.0667 362.923 51.4V44.4C362.923 41.3333 362.057 38.8333 360.323 36.9C358.657 34.9667 356.057 34 352.523 34ZM341.523 42H349.023C350.757 42 351.923 42.4667 352.523 43.4C353.123 44.2667 353.423 45.3667 353.423 46.7V50.1C353.423 51.4333 353.123 52.5667 352.523 53.5C351.923 54.3667 350.757 54.8 349.023 54.8H341.523V42ZM330.723 87H329.723V33H352.523C356.39 33 359.257 34.1 361.123 36.3C362.99 38.4333 363.923 41.1333 363.923 44.4V51.3C363.923 54.3667 363.523 56.9 362.723 58.9C361.923 60.8333 360.323 62.1667 357.923 62.9H359.023C363.09 62.9 366.123 63.8333 368.123 65.7C370.123 67.5 371.123 70.1333 371.123 73.6V87H370.123V73.6C370.123 70.3333 369.223 67.9 367.423 66.3C365.623 64.6333 362.823 63.8 359.023 63.8H330.723V87ZM337.923 96C339.19 96 340.09 95.7333 340.623 95.2C341.223 94.6 341.523 93.6667 341.523 92.4V72.8H355.523C356.923 72.8 357.89 73.1667 358.423 73.9C359.023 74.5667 359.323 75.6333 359.323 77.1V92.4C359.323 93.6667 359.59 94.6 360.123 95.2C360.723 95.7333 361.657 96 362.923 96H378.423C379.69 96 380.59 95.7333 381.123 95.2C381.723 94.6 382.023 93.6667 382.023 92.4V71.2C382.023 67 380.89 63.6333 378.623 61.1C376.423 58.5667 373.523 57.1 369.923 56.7C371.99 55.8333 373.423 54.4333 374.223 52.5C375.09 50.5 375.523 48.1 375.523 45.3V40.7C375.523 35.7667 374.09 31.7667 371.223 28.7C368.423 25.5667 363.29 24 355.823 24H322.523C321.257 24 320.323 24.3 319.723 24.9C319.19 25.4333 318.923 26.3333 318.923 27.6V92.4C318.923 93.6667 319.19 94.6 319.723 95.2C320.323 95.7333 321.257 96 322.523 96H337.923ZM341.123 96.1L328.123 106.9C327.857 107.167 327.423 107.4 326.823 107.6C326.29 107.8 325.69 107.9 325.023 107.9H309.623C308.023 107.9 306.857 107.533 306.123 106.8C305.39 106.067 305.023 104.9 305.023 103.3V38.5C305.023 37.6333 305.123 36.9 305.323 36.3C305.59 35.7 305.957 35.2 306.423 34.8L319.323 23.9C319.657 23.6333 320.09 23.4333 320.623 23.3C321.223 23.1 321.857 23 322.523 23H355.823C363.757 23 369.19 24.6667 372.123 28C375.057 31.2667 376.523 35.5 376.523 40.7V45.3C376.523 47.7667 376.223 49.9333 375.623 51.8C375.023 53.6 374.057 55.0667 372.723 56.2H372.623C375.757 57.0667 378.257 58.8 380.123 61.4C382.057 64 383.023 67.2667 383.023 71.2V92.4C383.023 93.2667 382.89 94 382.623 94.6C382.423 95.2 382.09 95.7 381.623 96.1L368.623 106.9C368.357 107.167 367.923 107.4 367.323 107.6C366.79 107.8 366.19 107.9 365.523 107.9H350.023C348.423 107.9 347.257 107.533 346.523 106.8C345.79 106.067 345.423 104.9 345.423 103.3V88C345.423 86.9333 345.223 86.1333 344.823 85.6C344.423 85 343.69 84.7 342.623 84.7H342.523V92.4C342.523 93.2667 342.39 94 342.123 94.6C341.923 95.2 341.59 95.7 341.123 96.1ZM450.301 107.9H403.901C402.301 107.9 401.134 107.533 400.401 106.8C399.667 106.067 399.301 104.9 399.301 103.3V38.5C399.301 37.6333 399.401 36.9 399.601 36.3C399.867 35.7 400.234 35.2 400.701 34.8L413.601 23.9C413.934 23.6333 414.367 23.4333 414.901 23.3C415.501 23.1 416.134 23 416.801 23H463.201C464.801 23 465.967 23.3667 466.701 24.1C467.434 24.8333 467.801 26 467.801 27.6V39.3C467.801 40.1667 467.667 40.9 467.401 41.5C467.201 42.1 466.867 42.6 466.401 43L457.801 50.1C458.467 50.4333 458.934 50.9333 459.201 51.6C459.534 52.2667 459.701 53.1333 459.701 54.2V64.9C459.701 65.7667 459.567 66.5 459.301 67.1C459.101 67.7 458.767 68.2 458.301 68.6L449.401 76.1H463.201C464.801 76.1 465.967 76.4667 466.701 77.2C467.434 77.9333 467.801 79.1 467.801 80.7V92.4C467.801 93.2667 467.667 94 467.401 94.6C467.201 95.2 466.867 95.7 466.401 96.1L453.401 106.9C453.134 107.167 452.701 107.4 452.101 107.6C451.567 107.8 450.967 107.9 450.301 107.9ZM463.201 96C464.467 96 465.367 95.7333 465.901 95.2C466.501 94.6 466.801 93.6667 466.801 92.4V80.7C466.801 79.4333 466.501 78.5333 465.901 78C465.367 77.4 464.467 77.1 463.201 77.1H435.601V68.5H455.101C456.367 68.5 457.267 68.2333 457.801 67.7C458.401 67.1 458.701 66.1667 458.701 64.9V54.2C458.701 52.9333 458.401 52.0333 457.801 51.5C457.267 50.9 456.367 50.6 455.101 50.6H435.601V42.9H463.201C464.467 42.9 465.367 42.6333 465.901 42.1C466.501 41.5 466.801 40.5667 466.801 39.3V27.6C466.801 26.3333 466.501 25.4333 465.901 24.9C465.367 24.3 464.467 24 463.201 24H416.801C415.534 24 414.601 24.3 414.001 24.9C413.467 25.4333 413.201 26.3333 413.201 27.6V92.4C413.201 93.6667 413.467 94.6 414.001 95.2C414.601 95.7333 415.534 96 416.801 96H463.201ZM457.801 86V87H424.101V33H457.801V34H425.101V59.1H449.701V60.1H425.101V86H457.801ZM535.691 107.9H489.291C487.691 107.9 486.525 107.533 485.791 106.8C485.058 106.067 484.691 104.9 484.691 103.3V38.5C484.691 37.6333 484.791 36.9 484.991 36.3C485.258 35.7 485.625 35.2 486.091 34.8L498.991 23.9C499.325 23.6333 499.758 23.4333 500.291 23.3C500.891 23.1 501.525 23 502.191 23H548.591C550.191 23 551.358 23.3667 552.091 24.1C552.825 24.8333 553.191 26 553.191 27.6V39.3C553.191 40.1667 553.058 40.9 552.791 41.5C552.591 42.1 552.258 42.6 551.791 43L543.191 50.1C543.858 50.4333 544.325 50.9333 544.591 51.6C544.925 52.2667 545.091 53.1333 545.091 54.2V64.9C545.091 65.7667 544.958 66.5 544.691 67.1C544.491 67.7 544.158 68.2 543.691 68.6L534.791 76.1H548.591C550.191 76.1 551.358 76.4667 552.091 77.2C552.825 77.9333 553.191 79.1 553.191 80.7V92.4C553.191 93.2667 553.058 94 552.791 94.6C552.591 95.2 552.258 95.7 551.791 96.1L538.791 106.9C538.525 107.167 538.091 107.4 537.491 107.6C536.958 107.8 536.358 107.9 535.691 107.9ZM548.591 96C549.858 96 550.758 95.7333 551.291 95.2C551.891 94.6 552.191 93.6667 552.191 92.4V80.7C552.191 79.4333 551.891 78.5333 551.291 78C550.758 77.4 549.858 77.1 548.591 77.1H520.991V68.5H540.491C541.758 68.5 542.658 68.2333 543.191 67.7C543.791 67.1 544.091 66.1667 544.091 64.9V54.2C544.091 52.9333 543.791 52.0333 543.191 51.5C542.658 50.9 541.758 50.6 540.491 50.6H520.991V42.9H548.591C549.858 42.9 550.758 42.6333 551.291 42.1C551.891 41.5 552.191 40.5667 552.191 39.3V27.6C552.191 26.3333 551.891 25.4333 551.291 24.9C550.758 24.3 549.858 24 548.591 24H502.191C500.925 24 499.991 24.3 499.391 24.9C498.858 25.4333 498.591 26.3333 498.591 27.6V92.4C498.591 93.6667 498.858 94.6 499.391 95.2C499.991 95.7333 500.925 96 502.191 96H548.591ZM543.191 86V87H509.491V33H543.191V34H510.491V59.1H535.091V60.1H510.491V86H543.191ZM618.494 107.9H594.094C585.36 107.9 578.894 105.633 574.694 101.1C570.56 96.5667 568.494 90.7 568.494 83.5V55.4C568.494 51.7333 569.027 48.5667 570.094 45.9C571.16 43.1667 572.727 40.9 574.794 39.1L587.794 28.2C589.86 26.4667 592.494 25.1667 595.694 24.3C598.894 23.4333 602.66 23 606.994 23H631.394C632.994 23 634.16 23.3667 634.894 24.1C635.627 24.8333 635.994 26 635.994 27.6V39.7C635.994 40.5667 635.86 41.3 635.594 41.9C635.394 42.5 635.06 43 634.594 43.4L621.594 54.2C621.327 54.4667 620.894 54.7 620.294 54.9C619.76 55.1 619.16 55.2 618.494 55.2H606.194V72.1C606.194 73.5 606.627 74.5 607.494 75.1C608.36 75.6333 609.627 75.9 611.294 75.9H631.394C632.994 75.9 634.16 76.2667 634.894 77C635.627 77.7333 635.994 78.9 635.994 80.5V92.4C635.994 93.2667 635.86 94 635.594 94.6C635.394 95.2 635.06 95.7 634.594 96.1L621.594 106.9C621.327 107.167 620.894 107.4 620.294 107.6C619.76 107.8 619.16 107.9 618.494 107.9ZM631.394 96C632.66 96 633.56 95.7333 634.094 95.2C634.694 94.6 634.994 93.6667 634.994 92.4V80.5C634.994 79.2333 634.694 78.3333 634.094 77.8C633.56 77.2 632.66 76.9 631.394 76.9H611.294C609.227 76.9 607.694 76.5333 606.694 75.8C605.694 75 605.194 73.7667 605.194 72.1V48.3C605.194 46.6333 605.694 45.4 606.694 44.6C607.694 43.7333 609.227 43.3 611.294 43.3H631.394C632.66 43.3 633.56 43.0333 634.094 42.5C634.694 41.9 634.994 40.9667 634.994 39.7V27.6C634.994 26.3333 634.694 25.4333 634.094 24.9C633.56 24.3 632.66 24 631.394 24H606.994C598.66 24 592.46 25.7 588.394 29.1C584.394 32.4333 582.394 37.5667 582.394 44.5V75.6C582.394 82.5333 584.394 87.6667 588.394 91C592.46 94.3333 598.66 96 606.994 96H631.394ZM625.894 86V87H609.194C602.727 87 598.427 86 596.294 84C594.227 82 593.194 78.7 593.194 74.1V46.1C593.194 41.3667 594.26 38 596.394 36C598.527 34 602.794 33 609.194 33H625.894V34H609.194C603.327 34 599.36 34.9333 597.294 36.8C595.227 38.6 594.194 41.7 594.194 46.1V74.1C594.194 78.4333 595.194 81.5 597.194 83.3C599.194 85.1 603.194 86 609.194 86H625.894ZM676.348 65.7V68.8H715.348V65.7C715.348 63.9 715.181 62.2333 714.848 60.7C714.581 59.1667 714.214 57.7333 713.748 56.4L706.848 40.1C706.114 38.3667 705.348 36.9333 704.548 35.8C703.748 34.6 702.414 34 700.548 34H690.748C688.748 34 687.348 34.6 686.548 35.8C685.748 36.9333 685.014 38.3333 684.348 40L677.948 56.4C677.481 57.7333 677.081 59.1667 676.748 60.7C676.481 62.2333 676.348 63.9 676.348 65.7ZM692.348 45C692.614 44.4 692.881 43.9667 693.148 43.7C693.481 43.4333 693.848 43.3 694.248 43.3H696.748C697.148 43.3 697.481 43.4333 697.748 43.7C698.081 43.9667 698.381 44.4 698.648 45L703.348 60.2H687.648L692.348 45ZM715.348 87V69.8H676.348V87H675.348V65.7C675.348 63.8333 675.481 62.1333 675.748 60.6C676.081 59 676.514 57.4667 677.048 56L683.448 39.6C684.181 37.7333 685.014 36.1667 685.948 34.9C686.881 33.6333 688.481 33 690.748 33H700.548C702.748 33 704.281 33.6333 705.148 34.9C706.081 36.1667 706.948 37.7667 707.748 39.7L714.648 56C715.181 57.4667 715.581 59 715.848 60.6C716.181 62.1333 716.348 63.8333 716.348 65.7V87H715.348ZM686.648 92.4V78.4H704.348V92.4C704.348 93.6667 704.648 94.6 705.248 95.2C705.914 95.7333 706.914 96 708.248 96H723.348C724.614 96 725.514 95.7333 726.048 95.2C726.648 94.6 726.948 93.6667 726.948 92.4V66C726.948 64 726.614 61.7 725.948 59.1C725.348 56.5 724.381 53.4667 723.048 50L714.348 27.3C713.948 26.1667 713.314 25.3333 712.448 24.8C711.648 24.2667 710.614 24 709.348 24H682.448C681.114 24 680.014 24.2667 679.148 24.8C678.348 25.3333 677.748 26.1667 677.348 27.3L668.648 50C667.314 53.4667 666.314 56.5 665.648 59.1C665.048 61.7 664.748 64 664.748 66V92.4C664.748 93.6667 665.014 94.6 665.548 95.2C666.148 95.7333 667.081 96 668.348 96H683.048C684.314 96 685.214 95.7333 685.748 95.2C686.348 94.6 686.648 93.6667 686.648 92.4ZM673.248 106.9C672.981 107.167 672.548 107.4 671.948 107.6C671.414 107.8 670.814 107.9 670.148 107.9H655.448C653.848 107.9 652.681 107.533 651.948 106.8C651.214 106.067 650.848 104.9 650.848 103.3V76.9C650.848 74.8333 651.148 72.5 651.748 69.9C652.414 67.2333 653.448 64.1 654.848 60.5L663.448 37.9C663.648 37.3 663.881 36.8 664.148 36.4C664.481 35.9333 664.814 35.5333 665.148 35.2L665.248 35.1L678.048 24.4C678.581 23.9333 679.214 23.6 679.948 23.4C680.681 23.1333 681.514 23 682.448 23H709.348C710.881 23 712.114 23.3333 713.048 24C714.048 24.6 714.781 25.5667 715.248 26.9L723.948 49.6C725.348 53.2 726.348 56.3333 726.948 59C727.614 61.6 727.948 63.9333 727.948 66V92.4C727.948 93.2667 727.814 94 727.548 94.6C727.348 95.2 727.014 95.7 726.548 96.1L713.548 106.9C713.281 107.167 712.848 107.4 712.248 107.6C711.714 107.8 711.114 107.9 710.448 107.9H695.348C693.681 107.9 692.448 107.5 691.648 106.7C690.848 105.967 690.448 104.833 690.448 103.3V90.3H687.648V92.4C687.648 93.2667 687.514 94 687.248 94.6C687.048 95.2 686.714 95.7 686.248 96.1L673.248 106.9ZM765.455 107.9H749.955C748.355 107.9 747.189 107.533 746.455 106.8C745.722 106.067 745.355 104.9 745.355 103.3V38.5C745.355 37.6333 745.455 36.9 745.655 36.3C745.922 35.7 746.289 35.2 746.755 34.8L759.655 23.9C759.989 23.6333 760.422 23.4333 760.955 23.3C761.555 23.1 762.189 23 762.855 23H793.455C798.189 23 802.155 23.5 805.355 24.5C808.555 25.5 811.089 26.9 812.955 28.7C814.822 30.5 816.122 32.6667 816.855 35.2C817.655 37.7333 818.055 40.5 818.055 43.5V56.3C818.055 59.5 817.589 62.4333 816.655 65.1C815.789 67.7 814.255 69.9333 812.055 71.8L799.055 82.6C797.389 84 795.222 85.1667 792.555 86.1C789.955 86.9667 786.755 87.4667 782.955 87.6V92.4C782.955 93.2667 782.822 94 782.555 94.6C782.355 95.2 782.022 95.7 781.555 96.1L768.555 106.9C768.289 107.167 767.855 107.4 767.255 107.6C766.722 107.8 766.122 107.9 765.455 107.9ZM778.355 96C779.622 96 780.522 95.7333 781.055 95.2C781.655 94.6 781.955 93.6667 781.955 92.4V75.8H793.455C802.522 75.8 808.722 74 812.055 70.4C815.389 66.8 817.055 62.1 817.055 56.3V43.5C817.055 37.7 815.389 33 812.055 29.4C808.722 25.8 802.522 24 793.455 24H762.855C761.589 24 760.655 24.3 760.055 24.9C759.522 25.4333 759.255 26.3333 759.255 27.6V92.4C759.255 93.6667 759.522 94.6 760.055 95.2C760.655 95.7333 761.589 96 762.855 96H778.355ZM792.055 67.3H771.455V87H770.455V33H792.055C795.189 33 797.722 33.3667 799.655 34.1C801.655 34.7667 803.189 35.7 804.255 36.9C805.322 38.1 806.055 39.5333 806.455 41.2C806.855 42.8667 807.055 44.6667 807.055 46.6V54C807.055 55.9333 806.855 57.7333 806.455 59.4C806.055 61 805.322 62.4 804.255 63.6C803.189 64.7333 801.655 65.6333 799.655 66.3C797.722 66.9667 795.189 67.3 792.055 67.3ZM771.455 66.3H792.055C794.989 66.3 797.355 66 799.155 65.4C801.022 64.8 802.455 63.9667 803.455 62.9C804.455 61.7667 805.122 60.4667 805.455 59C805.855 57.4667 806.055 55.8 806.055 54V46.6C806.055 44.8 805.855 43.1333 805.455 41.6C805.122 40.0667 804.455 38.7333 803.455 37.6C802.455 36.4667 801.022 35.6 799.155 35C797.355 34.3333 794.989 34 792.055 34H771.455V66.3ZM781.755 42.7H790.755C792.689 42.7 793.955 43.2 794.555 44.2C795.155 45.2 795.455 46.3333 795.455 47.6V52.9C795.455 54.1667 795.155 55.3 794.555 56.3C793.955 57.3 792.689 57.8 790.755 57.8H781.755V42.7Z" fill="black"/>
<path d="M0.661173 25.0338L0.5 25.1823V25.4015V118.92V119.42H1H53.0375H53.1918L53.3192 119.333L58.3141 115.927C58.8832 115.539 58.6086 114.649 57.9198 114.649H54.6117H6.27639V33.9489V30.4293V21.4563C6.27639 20.8463 5.55057 20.5282 5.10203 20.9415L0.661173 25.0338ZM56.0542 34.4489H56.278L56.4271 34.282L59.2742 31.0958C59.6493 30.6761 59.4069 29.9293 58.7605 29.9293H37.4514H15.832H15.332V30.4293V33.9489V34.4489H15.832H56.0542Z" fill="#242729" stroke="#25282A"/>
<path d="M29.9098 94.1556H74.657L78.0541 91.1906C78.1237 91.1298 78.0808 91.0153 77.9884 91.0153H67.732H33.1778V84.8077C33.1778 84.6311 32.9657 84.5412 32.8388 84.6639L29.9098 87.4957V94.1556Z" fill="#242729"/>
<path d="M67.732 56.9493V84.479H70.8862V68.8926V53.3062L54.2945 53.3062L33.1778 53.3062V47.1075C33.1778 46.9311 32.966 46.8411 32.839 46.9635L29.9098 49.7867V56.9493H33.1778H67.732Z" fill="#242729"/>
<path d="M29.9098 94.1556H74.657L78.0541 91.1906C78.1237 91.1298 78.0808 91.0153 77.9884 91.0153H67.732H33.1778V84.8077C33.1778 84.6311 32.9657 84.5412 32.8388 84.6639L29.9098 87.4957V94.1556Z" stroke="black"/>
<path d="M67.732 56.9493V84.479H70.8862V68.8926V53.3062L54.2945 53.3062L33.1778 53.3062V47.1075C33.1778 46.9311 32.966 46.8411 32.839 46.9635L29.9098 49.7867V56.9493H33.1778H67.732Z" stroke="black"/>
<path d="M59.5709 21.1277V20.6277H59.0709H6.27917H5.77917V21.1277V114.646V115.146H6.27917H58.3167H58.8167V114.646V105.888V105.388H58.3167H15.8292V30.3863H37.2H59.0709H59.5709V29.8863V21.1277Z" stroke="black"/>
<g filter="url(#filter0_d_42_24)">
<path d="M65.1042 33.6976H92.0028L92.0644 118.669H100.801L105.537 115.005C105.688 114.888 105.605 114.646 105.415 114.646H97.0306V72.1609V29.6753H85.7181H70.132V21.4301C70.132 21.261 69.9352 21.1682 69.8048 21.2757L65.1042 25.1502V33.6976Z" fill="#242729"/>
<path d="M65.1042 33.6976H92.0028L92.0644 118.669H100.801L105.537 115.005C105.688 114.888 105.605 114.646 105.415 114.646H97.0306V72.1609V29.6753H85.7181H70.132V21.4301C70.132 21.261 69.9352 21.1682 69.8048 21.2757L65.1042 25.1502V33.6976Z" stroke="black"/>
</g>
<g filter="url(#filter1_d_42_24)">
<path d="M105.829 21.1277H70.132V29.6751H97.0306L97.0922 114.646H105.829V21.1277Z" stroke="black" shape-rendering="crispEdges"/>
</g>
<path d="M78.1765 46.7699H33.1986V53.3062H71.0209V84.479H33.1986V91.0153H78.1765V46.7699Z" stroke="black"/>
<defs>
<filter id="filter0_d_42_24" x="60.6042" y="20.7288" width="49.5119" height="106.44" filterUnits="userSpaceOnUse" color-interpolation-filters="sRGB">
<feFlood flood-opacity="0" result="BackgroundImageFix"/>
<feColorMatrix in="SourceAlpha" type="matrix" values="0 0 0 0 0 0 0 0 0 0 0 0 0 0 0 0 0 0 127 0" result="hardAlpha"/>
<feOffset dy="4"/>
<feGaussianBlur stdDeviation="2"/>
<feComposite in2="hardAlpha" operator="out"/>
<feColorMatrix type="matrix" values="0 0 0 0 0 0 0 0 0 0 0 0 0 0 0 0 0 0 0.25 0"/>
<feBlend mode="normal" in2="BackgroundImageFix" result="effect1_dropShadow_42_24"/>
<feBlend mode="normal" in="SourceGraphic" in2="effect1_dropShadow_42_24" result="shape"/>
</filter>
<filter id="filter1_d_42_24" x="65.632" y="20.6277" width="44.6973" height="102.519" filterUnits="userSpaceOnUse" color-interpolation-filters="sRGB">
<feFlood flood-opacity="0" result="BackgroundImageFix"/>
<feColorMatrix in="SourceAlpha" type="matrix" values="0 0 0 0 0 0 0 0 0 0 0 0 0 0 0 0 0 0 127 0" result="hardAlpha"/>
<feOffset dy="4"/>
<feGaussianBlur stdDeviation="2"/>
<feComposite in2="hardAlpha" operator="out"/>
<feColorMatrix type="matrix" values="0 0 0 0 0 0 0 0 0 0 0 0 0 0 0 0 0 0 0.25 0"/>
<feBlend mode="normal" in2="BackgroundImageFix" result="effect1_dropShadow_42_24"/>
<feBlend mode="normal" in="SourceGraphic" in2="effect1_dropShadow_42_24" result="shape"/>
</filter>
</defs>
</svg>
